<svg width="219.5" height="71.301" viewBox="0 0 219.5 71.301" xmlns="http://www.w3.org/2000/svg"><g id="svgGroup" stroke-linecap="round" fill-rule="evenodd" font-size="9pt" stroke="#ffffff" stroke-width="0.25mm" fill="#ffffff" style="stroke:#ffffff;stroke-width:0.25mm;fill:#ffffff"><path d="M 39.3 70 L 26.9 70 L 0 0 L 16.1 0 L 33.4 47.1 L 50.7 0 L 66.3 0 L 39.3 70 Z M 97.6 0 L 121.4 0 A 37.762 37.762 0 0 1 127.673 0.502 A 30.879 30.879 0 0 1 131.85 1.5 A 24.434 24.434 0 0 1 136.936 3.739 A 20.579 20.579 0 0 1 139.95 5.9 Q 143.3 8.8 145.2 13 A 21.161 21.161 0 0 1 146.855 18.874 A 27.362 27.362 0 0 1 147.1 22.6 Q 147.1 28 145.2 32.2 Q 143.3 36.4 139.95 39.3 A 21.53 21.53 0 0 1 134.275 42.805 A 26.34 26.34 0 0 1 131.85 43.7 A 32.234 32.234 0 0 1 125.206 45.023 A 39.847 39.847 0 0 1 121.4 45.2 L 112.6 45.2 L 112.6 70 L 97.6 70 L 97.6 0 Z M 173.8 56.6 L 186.8 49.4 A 16.672 16.672 0 0 0 188.332 52.374 A 12.815 12.815 0 0 0 190.6 55 Q 193 57.1 196.2 57.1 Q 200.2 57.1 202.25 54.6 A 8.073 8.073 0 0 0 203.651 51.973 Q 204.3 50 204.3 47.3 L 204.3 0 L 219.5 0 L 219.5 47.7 A 30.544 30.544 0 0 1 218.982 53.44 A 24.8 24.8 0 0 1 217.85 57.5 Q 216.2 61.9 213.2 64.95 A 19.986 19.986 0 0 1 206.825 69.273 A 23.347 23.347 0 0 1 205.9 69.65 A 24.594 24.594 0 0 1 200.105 71.067 A 31.627 31.627 0 0 1 196.2 71.3 Q 188.2 71.3 182.3 67.35 Q 176.4 63.4 173.8 56.6 Z M 112.6 13.5 L 112.6 31.9 L 121.7 31.9 A 13.841 13.841 0 0 0 125.032 31.519 A 10.088 10.088 0 0 0 129.1 29.5 A 7.813 7.813 0 0 0 131.856 24.56 A 11.541 11.541 0 0 0 132 22.7 A 10.684 10.684 0 0 0 131.642 19.854 A 7.645 7.645 0 0 0 129.1 15.9 A 10.248 10.248 0 0 0 124.419 13.746 A 14.351 14.351 0 0 0 121.7 13.5 L 112.6 13.5 Z" vector-effect="non-scaling-stroke"/></g></svg>